<?xml version="1.0" standalone="no"?>
<!DOCTYPE svg PUBLIC "-//W3C//DTD SVG 20010904//EN"
 "http://www.w3.org/TR/2001/REC-SVG-20010904/DTD/svg10.dtd">
<svg version="1.0" xmlns="http://www.w3.org/2000/svg"
 width="512.000000pt" height="512.000000pt" viewBox="0 0 512.000000 512.000000"
 preserveAspectRatio="xMidYMid meet">

<g transform="translate(0.000000,512.000000) scale(0.100000,-0.100000)"
fill="#000000" stroke="none">
<path d="M2812 4579 c-428 -90 -690 -403 -732 -873 -5 -61 -10 -216 -10 -343
l0 -233 -280 0 -281 0 -24 -25 -25 -24 0 -366 0 -366 25 -24 24 -25 281 0 280
0 0 -842 c0 -552 4 -856 10 -880 6 -21 19 -42 30 -48 12 -6 160 -10 395 -10
l376 0 24 25 25 24 0 865 0 865 335 3 c305 3 336 5 352 21 16 16 18 47 21 360
3 354 1 390 -22 423 -14 18 -33 19 -348 24 l-333 5 0 260 c0 287 4 311 58 362
51 49 81 54 362 60 253 6 260 7 282 29 l23 23 0 344 0 344 -23 21 c-23 22 -27
22 -378 21 -311 0 -365 -3 -447 -20z"/>
</g>
</svg>
